<svg width="27" height="32" viewBox="0 0 27 32" fill="none" xmlns="http://www.w3.org/2000/svg">
<path d="M24.1421 5.8457C25.1432 5.3789 26.3335 5.81147 26.8003 6.8125C27.2671 7.81358 26.8336 9.00389 25.8325 9.4707L18.5769 12.8538C18.2247 13.0181 17.9995 13.3715 17.9995 13.7601V20C17.9995 20.0263 18.0036 20.052 18.0163 20.075C18.0644 20.1622 18.108 20.2532 18.1431 20.3496L21.1021 28.4795C21.4796 29.5173 20.9445 30.6652 19.9068 31.043C18.8689 31.4207 17.7212 30.8853 17.3433 29.8477L14.667 22.4951C14.5588 22.1978 14.2763 22 13.96 22C13.6437 22 13.3611 22.1978 13.2529 22.4951L10.4429 30.2158C10.065 31.2535 8.91719 31.7887 7.87941 31.4111C6.84156 31.0334 6.30654 29.8855 6.6841 28.8477L9.90871 19.9883C9.9602 19.8468 9.99953 19.7 9.99953 19.5494V13.9252C9.99953 13.5365 9.77436 13.1831 9.42214 13.0189L1.813 9.4707C0.811924 9.00389 0.378419 7.81358 0.84523 6.8125C1.31208 5.8115 2.50239 5.37891 3.50343 5.8457L12.1528 9.87891C12.301 9.94804 12.4583 10 12.6218 10H15.0093C15.2297 10 15.4397 9.91923 15.6343 9.81581C15.6634 9.80036 15.693 9.78557 15.7232 9.77148L24.1421 5.8457ZM13.9995 0C15.6564 0 16.9995 1.34315 16.9995 3C16.9995 4.65685 15.6564 6 13.9995 6C12.3429 5.99975 10.9995 4.6567 10.9995 3C10.9995 1.3433 12.3429 0.000251711 13.9995 0Z" fill="black"/>
</svg>
