<svg width="32" height="39" viewBox="0 0 32 39" fill="none" xmlns="http://www.w3.org/2000/svg">
<path fill-rule="evenodd" clip-rule="evenodd" d="M22.0557 2.82812L18.541 6.3418L18.5635 6.36426L18.3438 6.58301C18.7787 6.81381 19.1806 7.11027 19.5352 7.46484C20.3144 8.24409 20.8089 9.25386 20.9541 10.334C22.1371 11.0051 23.2168 11.9098 24.1572 13H32V17H26.6133C27.1381 18.2408 27.5298 19.5837 27.7598 21H32V25H27.9727C27.8992 26.3942 27.672 27.7357 27.3145 29H32V33H25.6006C23.4113 36.6433 19.9259 39 16 39C12.0741 39 8.58871 36.6433 6.39941 33H0V29H4.68555C4.32799 27.7357 4.10076 26.3942 4.02734 25H0V21H4.24023C4.47023 19.5837 4.86193 18.2408 5.38672 17H0V13H7.84277C8.78299 11.91 9.86222 11.0051 11.0449 10.334C11.1901 9.25381 11.6856 8.24412 12.4648 7.46484C12.7189 7.21084 12.9974 6.9873 13.2949 6.7959L12.8633 6.36426L12.8848 6.3418L9.37109 2.82812L12.2002 0L15.7129 3.51367L19.2275 0L22.0557 2.82812ZM16 12C11.6195 12 7 16.7133 7 24C7 30.1771 10.3204 34.5029 14 35.6777V17H18V35.6777C21.6796 34.5029 25 30.1771 25 24C25 16.7133 20.3805 12 16 12Z" fill="black"/>
</svg>
