<svg width="18" height="9" viewBox="0 0 18 9" fill="none" xmlns="http://www.w3.org/2000/svg">
<path d="M0.178799 5.17598C0.143402 5.15963 0.120739 5.12419 0.120739 5.0852V3.98584C0.120739 3.94685 0.143402 3.91142 0.178799 3.89506L5.80834 1.29428C5.87461 1.26367 5.95028 1.31206 5.95028 1.38506V2.67558C5.95028 2.71557 5.92646 2.75171 5.88971 2.76748L1.8239 4.51176C1.8144 4.51583 1.80824 4.52518 1.80824 4.53552V4.53552C1.80824 4.54586 1.8144 4.55521 1.8239 4.55929L5.88971 6.30357C5.92646 6.31934 5.95028 6.35548 5.95028 6.39547V7.68599C5.95028 7.75898 5.87461 7.80738 5.80835 7.77677L0.178799 5.17598Z" fill="black"/>
<path d="M10.6933 0C10.7608 0 10.8089 0.0654344 10.7888 0.129827L8.03876 8.92983C8.02571 8.97158 7.98705 9 7.94331 9H6.802C6.73453 9 6.68643 8.93457 6.70655 8.87017L9.45655 0.070172C9.4696 0.0284244 9.50826 0 9.552 0H10.6933Z" fill="black"/>
<path d="M17.3714 5.0852C17.3714 5.12419 17.3487 5.15963 17.3133 5.17598L11.6838 7.77677C11.6175 7.80738 11.5418 7.75898 11.5418 7.68599V6.39547C11.5418 6.35548 11.5657 6.31934 11.6024 6.30357L15.6682 4.55929C15.6777 4.55521 15.6839 4.54586 15.6839 4.53552V4.53552C15.6839 4.52518 15.6777 4.51583 15.6682 4.51176L11.6024 2.76748C11.5657 2.75171 11.5418 2.71557 11.5418 2.67558V1.38506C11.5418 1.31206 11.6175 1.26367 11.6838 1.29428L17.3133 3.89506C17.3487 3.91142 17.3714 3.94685 17.3714 3.98584V5.0852Z" fill="black"/>
</svg>
