<svg width="24" height="24" viewBox="0 0 24 24" fill="none" xmlns="http://www.w3.org/2000/svg">
<path d="M12.5 24C12.2167 24 11.9738 23.92 11.7714 23.76C11.569 23.6 11.4173 23.39 11.3161 23.13C10.9315 22.01 10.4458 20.96 9.85893 19.98C9.29226 19 8.49286 17.85 7.46071 16.53C6.42857 15.21 5.58869 13.95 4.94107 12.75C4.31369 11.55 4 10.1 4 8.4C4 6.06 4.81964 4.08 6.45893 2.46C8.11845 0.82 10.1321 0 12.5 0C14.8679 0 16.8714 0.82 18.5107 2.46C20.1702 4.08 21 6.06 21 8.4C21 10.22 20.6458 11.74 19.9375 12.96C19.2494 14.16 18.45 15.35 17.5393 16.53C16.4464 17.97 15.6167 19.17 15.05 20.13C14.5036 21.07 14.0482 22.07 13.6839 23.13C13.5827 23.41 13.4208 23.63 13.1982 23.79C12.9958 23.93 12.7631 24 12.5 24ZM12.5 19.71C12.844 19.03 13.2286 18.36 13.6536 17.7C14.0988 17.04 14.7464 16.16 15.5964 15.06C16.4667 13.94 17.175 12.91 17.7214 11.97C18.2881 11.01 18.5714 9.82 18.5714 8.4C18.5714 6.74 17.9744 5.33 16.7804 4.17C15.6065 2.99 14.1798 2.4 12.5 2.4C10.8202 2.4 9.38333 2.99 8.18929 4.17C7.01548 5.33 6.42857 6.74 6.42857 8.4C6.42857 9.82 6.70179 11.01 7.24821 11.97C7.81488 12.91 8.53333 13.94 9.40357 15.06C10.2536 16.16 10.8911 17.04 11.3161 17.7C11.7613 18.36 12.156 19.03 12.5 19.71ZM12.5 11.4C13.35 11.4 14.0685 11.11 14.6554 10.53C15.2423 9.95 15.5357 9.24 15.5357 8.4C15.5357 7.56 15.2423 6.85 14.6554 6.27C14.0685 5.69 13.35 5.4 12.5 5.4C11.65 5.4 10.9315 5.69 10.3446 6.27C9.75774 6.85 9.46429 7.56 9.46429 8.4C9.46429 9.24 9.75774 9.95 10.3446 10.53C10.9315 11.11 11.65 11.4 12.5 11.4Z" fill="#EEEEEE"/>
</svg>
