<svg width="126" height="126" viewBox="0 0 126 126" fill="none" xmlns="http://www.w3.org/2000/svg">
<circle cx="63" cy="63" r="63" fill="#EEEEEE"/>
<path d="M83.0455 42.9091C82.5947 38.375 80.5928 34.7689 77.0398 32.0909C73.4868 29.4129 69.0189 28.0739 63.6364 28.0739C59.8447 28.0739 56.5038 28.7235 53.6136 30.0227C50.75 31.322 48.4962 33.125 46.8523 35.4318C45.2349 37.7121 44.4261 40.3106 44.4261 43.2273C44.4261 45.375 44.8902 47.2576 45.8182 48.875C46.7462 50.4924 47.9924 51.8845 49.5568 53.0511C51.1477 54.1913 52.8977 55.1723 54.8068 55.9943C56.7424 56.8163 58.6913 57.5057 60.6534 58.0625L69.2443 60.5284C71.8428 61.2443 74.4413 62.1591 77.0398 63.2727C79.6383 64.3863 82.0114 65.7917 84.1591 67.4886C86.3333 69.1591 88.0701 71.214 89.3693 73.6534C90.6951 76.0663 91.358 78.9697 91.358 82.3636C91.358 86.7121 90.2311 90.6231 87.9773 94.0966C85.7235 97.5701 82.4886 100.328 78.2727 102.369C74.0568 104.384 69.0057 105.392 63.1193 105.392C57.5777 105.392 52.7652 104.477 48.6818 102.648C44.5985 100.792 41.3902 98.2329 39.0568 94.9716C36.7235 91.7102 35.411 87.9318 35.1193 83.6364H42.7557C43.0208 86.8447 44.0814 89.5625 45.9375 91.7898C47.7936 94.017 50.2064 95.714 53.1761 96.8807C56.1458 98.0208 59.4602 98.5909 63.1193 98.5909C67.1761 98.5909 70.7822 97.9148 73.9375 96.5625C77.1193 95.1837 79.6118 93.2746 81.4148 90.8352C83.2443 88.3693 84.1591 85.5057 84.1591 82.2443C84.1591 79.4867 83.4432 77.1799 82.0114 75.3239C80.5796 73.4413 78.5777 71.8636 76.0057 70.5909C73.4602 69.3182 70.5038 68.1913 67.1364 67.2102L57.3921 64.3466C51.0019 62.4375 46.0436 59.7992 42.5171 56.4318C38.9905 53.0644 37.2273 48.7689 37.2273 43.5454C37.2273 39.1704 38.3939 35.3257 40.7273 32.0114C43.0871 28.6704 46.2689 26.072 50.2727 24.2159C54.303 22.3333 58.8239 21.392 63.8352 21.392C68.8996 21.392 73.3807 22.3201 77.2784 24.1761C81.1761 26.0322 84.2652 28.5909 86.5455 31.8523C88.8523 35.0871 90.0852 38.7727 90.2443 42.9091H83.0455Z" fill="#444444"/>
<path d="M73.8403 50.1364L73.5512 51.8815L66.476 94.5485H89.5414L89.2495 96.2955L87.9194 104.248L87.7104 105.5H52.1225L52.4125 103.755L61.1059 51.3903L61.3139 50.1364H73.8403Z" fill="#DE2020" stroke="#EEEEEE" stroke-width="3"/>
</svg>
