<svg width="2087" height="820" viewBox="0 0 2087 820" fill="none" xmlns="http://www.w3.org/2000/svg">
<path d="M1.00098 1.52532C1.00098 1.52532 416.994 343.129 782.876 523.134C871.927 566.945 970.689 643.961 1018.35 717.483C1041.85 753.741 1043.5 819.763 1043.5 819.763M1043.5 819.763C1043.5 819.763 1045.15 753.741 1068.65 717.483C1116.31 643.961 1215.07 566.945 1304.12 523.134C1670.01 343.129 2086 1.52532 2086 1.52532M1043.5 819.763V1M106.159 1C106.159 1 480.189 342.603 809.162 522.609C889.23 566.42 978.03 643.435 1020.88 716.958C1042.01 753.215 1043.5 819.237 1043.5 819.237M1043.5 819.237C1043.5 819.237 1042.18 753.215 1023.42 716.958C985.375 643.435 906.537 566.42 835.452 522.609C543.386 342.603 211.317 1 211.317 1M1043.5 819.237C1043.5 819.237 1042.34 753.215 1025.95 716.958C992.719 643.435 923.844 566.42 861.741 522.609C606.582 342.603 316.475 1 316.475 1M1043.5 819.237C1043.5 819.237 1042.51 753.215 1028.49 716.958C1000.06 643.435 941.151 566.42 888.031 522.609C669.779 342.603 421.634 1 421.634 1M1043.5 819.237C1043.5 819.237 1042.68 753.215 1031.03 716.958C1007.41 643.435 958.458 566.42 914.32 522.609C732.975 342.603 526.792 1 526.792 1M1043.5 819.237C1043.5 819.237 1042.84 753.215 1033.57 716.958C1014.75 643.435 975.765 566.42 940.61 522.609C796.171 342.603 631.95 1 631.95 1M1043.5 819.237C1043.5 819.237 1043.01 753.215 1036.1 716.958C1022.1 643.435 993.071 566.42 966.899 522.609C859.368 342.603 737.108 1 737.108 1M1043.5 819.237C1043.5 819.237 1043.18 753.215 1038.64 716.958C1029.44 643.435 1010.38 566.42 993.189 522.609C922.564 342.603 842.266 1 842.266 1M1043.5 819.237C1043.5 819.237 1043.34 753.215 1041.18 716.958C1036.79 643.435 1027.69 566.42 1019.48 522.609C985.76 342.603 947.424 1 947.424 1M1980.84 1C1980.84 1 1606.81 342.603 1277.84 522.609C1197.77 566.42 1108.97 643.435 1066.12 716.958C1044.99 753.215 1043.5 819.237 1043.5 819.237M1043.5 819.237C1043.5 819.237 1044.82 753.215 1063.58 716.958C1101.63 643.435 1180.46 566.42 1251.55 522.609C1543.61 342.603 1875.68 1 1875.68 1M1043.5 819.237C1043.5 819.237 1044.66 753.215 1061.05 716.958C1094.28 643.435 1163.16 566.42 1225.26 522.609C1480.42 342.603 1770.52 1 1770.52 1M1043.5 819.237C1043.5 819.237 1044.49 753.215 1058.51 716.958C1086.94 643.435 1145.85 566.42 1198.97 522.609C1417.22 342.603 1665.37 1 1665.37 1M1043.5 819.237C1043.5 819.237 1044.32 753.215 1055.97 716.958C1079.59 643.435 1128.54 566.42 1172.68 522.609C1354.03 342.603 1560.21 1 1560.21 1M1043.5 819.237C1043.5 819.237 1044.16 753.215 1053.43 716.958C1072.25 643.435 1111.24 566.42 1146.39 522.609C1290.83 342.603 1455.05 1 1455.05 1M1043.5 819.237C1043.5 819.237 1043.99 753.215 1050.9 716.958C1064.9 643.435 1093.93 566.42 1120.1 522.609C1227.63 342.603 1349.89 1 1349.89 1M1043.5 819.237C1043.5 819.237 1043.82 753.215 1048.36 716.958C1057.56 643.435 1076.62 566.42 1093.81 522.609C1164.44 342.603 1244.74 1 1244.74 1M1043.5 819.237C1043.5 819.237 1043.66 753.215 1045.82 716.958C1050.21 643.435 1059.32 566.42 1067.52 522.609C1101.24 342.603 1139.58 1 1139.58 1" stroke="url(#paint0_linear_33_134)" stroke-width="2"/>
<defs>
<linearGradient id="paint0_linear_33_134" x1="1043.5" y1="1" x2="1043.5" y2="1638" gradientUnits="userSpaceOnUse">
<stop stop-color="#DE2020"/>
<stop offset="0.3" stop-color="#F0E2CE" stop-opacity="0.75"/>
<stop offset="0.4" stop-color="#F7F7F7" stop-opacity="0.2"/>
<stop offset="0.6" stop-color="#F7F7F7" stop-opacity="0.2"/>
<stop offset="0.7" stop-color="#F0E2CE" stop-opacity="0.75"/>
<stop offset="1" stop-color="#DE2020"/>
</linearGradient>
</defs>
</svg>
