<svg width="84" height="70" viewBox="0 0 84 70" fill="none" xmlns="http://www.w3.org/2000/svg">
<path d="M39.5712 43.7767C38.1511 42.0844 38.3719 39.5613 40.0642 38.1413L53.853 26.5711C55.5453 25.1511 58.0683 25.3719 59.4883 27.0642C60.9083 28.7565 60.6876 31.2795 58.9953 32.6995L45.2065 44.2697C43.5142 45.6897 40.9912 45.469 39.5712 43.7767Z" fill="black"/>
<path d="M39.86 0.0389512C17.7195 0.987779 0 19.2977 0 41.6649C0 51.4983 3.4263 60.5447 9.14714 67.6822C10.6888 69.603 13.5699 69.7617 15.3158 68.0158L15.3727 67.9589C16.8519 66.4797 16.9822 64.1356 15.6738 62.5064C9.83633 55.2397 6.97643 45.4848 8.9681 35.1057C11.4681 22.0682 21.9441 11.5368 34.9691 8.98264C56.2691 4.8118 75 21.0941 75 41.6649C75 49.5608 72.2393 56.8223 67.6351 62.5389C66.3309 64.1556 66.4979 66.5003 67.9688 67.967L68.0176 68.0158C69.7509 69.7492 72.6366 69.6272 74.1699 67.7147C81.2783 58.8647 84.848 47.0586 82.723 34.4628C79.873 17.5586 66.431 3.85152 49.5768 0.730683C46.2721 0.118704 43.023 -0.0965954 39.86 0.0389512Z" fill="black"/>
</svg>
