<svg width="28" height="16" viewBox="0 0 28 16" fill="none" xmlns="http://www.w3.org/2000/svg">
<path fill-rule="evenodd" clip-rule="evenodd" d="M8 1C8.55228 1 9 1.52233 9 2.16667V13.8333L8.99512 13.953C8.98517 14.0669 8.96082 14.1758 8.9248 14.2777C8.91958 14.2925 8.91295 14.3065 8.90723 14.321C8.8863 14.3738 8.86216 14.4243 8.83496 14.4725C8.82825 14.4844 8.82152 14.4962 8.81445 14.5078C8.80216 14.528 8.78971 14.5479 8.77637 14.5671C8.772 14.5733 8.76717 14.5791 8.7627 14.5853C8.74762 14.6061 8.73208 14.6262 8.71582 14.6457C8.70939 14.6534 8.7029 14.661 8.69629 14.6685C8.67841 14.6887 8.65976 14.7079 8.64062 14.7266C8.63691 14.7302 8.63364 14.7344 8.62988 14.738C8.61295 14.754 8.59595 14.7699 8.57812 14.7847C8.56738 14.7936 8.55598 14.8013 8.54492 14.8097C8.52584 14.8243 8.50628 14.8377 8.48633 14.8507C8.48136 14.854 8.4767 14.8579 8.47168 14.861C8.45449 14.8718 8.43671 14.881 8.41895 14.8906C8.40243 14.8995 8.38612 14.9089 8.36914 14.9168C8.36397 14.9192 8.35873 14.9214 8.35352 14.9237C8.3298 14.9341 8.30579 14.9438 8.28125 14.9521C8.23625 14.9675 8.18996 14.9784 8.14258 14.9863C8.09594 14.9941 8.04849 15 8 15H2C1.96539 15 1.93116 14.9983 1.89746 14.9943C1.83565 14.987 1.77575 14.972 1.71777 14.9521C1.66888 14.9354 1.62164 14.9144 1.57617 14.8895C1.56851 14.8853 1.56126 14.8802 1.55371 14.8758C1.50962 14.8501 1.46683 14.822 1.42676 14.7892C1.4203 14.7839 1.41454 14.7776 1.4082 14.7721C1.32557 14.7011 1.25286 14.616 1.19238 14.5192C1.18843 14.5129 1.18353 14.5074 1.17969 14.501C1.15166 14.4542 1.12747 14.4043 1.10547 14.3529C1.1017 14.3441 1.09733 14.3356 1.09375 14.3267C1.0725 14.2736 1.05434 14.2185 1.04004 14.1615C1.02318 14.0942 1.01113 14.0246 1.00488 13.953L1 13.8333V2.16667C1 2.10977 1.004 2.05391 1.01074 1.99919C1.01755 1.94398 1.02685 1.88983 1.04004 1.8374C1.05442 1.78025 1.07336 1.72535 1.09473 1.6722C1.11576 1.61985 1.13979 1.56957 1.16699 1.52181C1.17219 1.51268 1.1772 1.50341 1.18262 1.49447C1.21296 1.4443 1.24662 1.39709 1.2832 1.35319C1.28962 1.34549 1.29613 1.33789 1.30273 1.3304C1.31941 1.31146 1.33671 1.29328 1.35449 1.27572C1.35977 1.2705 1.36474 1.26485 1.37012 1.25977C1.38653 1.24422 1.40365 1.22966 1.4209 1.21533C1.43082 1.20709 1.44098 1.19923 1.45117 1.19141C1.46958 1.17727 1.48859 1.16425 1.50781 1.15153C1.51504 1.14675 1.52196 1.14129 1.5293 1.13672C1.54622 1.12616 1.56357 1.11653 1.58105 1.1071C1.59345 1.10042 1.6055 1.09269 1.61816 1.08659C1.6411 1.07553 1.66472 1.06605 1.68848 1.05697C1.69336 1.0551 1.69821 1.05305 1.70312 1.05127C1.76546 1.0287 1.83056 1.01364 1.89746 1.0057L2 1H8ZM5 12.6667C4.72386 12.6667 4.5 12.9278 4.5 13.25C4.5 13.5722 4.72386 13.8333 5 13.8333C5.27614 13.8333 5.5 13.5722 5.5 13.25C5.5 12.9278 5.27614 12.6667 5 12.6667Z" fill="black"/>
<path fill-rule="evenodd" clip-rule="evenodd" d="M26.1025 1.0057C26.1691 1.01361 26.2338 1.02887 26.2959 1.05127C26.3008 1.05304 26.3057 1.05511 26.3105 1.05697C26.3343 1.06602 26.3579 1.07555 26.3809 1.08659C26.3935 1.09268 26.4056 1.10043 26.418 1.1071C26.4355 1.11651 26.4528 1.12618 26.4697 1.13672C26.4771 1.14129 26.484 1.14675 26.4912 1.15153C26.5105 1.16424 26.5294 1.17728 26.5479 1.19141C26.5581 1.19922 26.5682 1.2071 26.5781 1.21533C26.5954 1.22966 26.6125 1.24422 26.6289 1.25977C26.6343 1.26485 26.6392 1.27051 26.6445 1.27572C26.6623 1.29327 26.6796 1.31146 26.6963 1.3304C26.7029 1.33789 26.7094 1.34549 26.7158 1.35319C26.7525 1.39709 26.786 1.44429 26.8164 1.49447C26.8219 1.50359 26.8277 1.5125 26.833 1.52181C26.8602 1.56957 26.8842 1.61985 26.9053 1.6722C26.9266 1.72525 26.9446 1.78036 26.959 1.8374C26.9722 1.88988 26.9815 1.94393 26.9883 1.99919C26.995 2.05396 27 2.10971 27 2.16667V13.8333L26.9951 13.953C26.9889 14.0247 26.9759 14.0941 26.959 14.1615C26.9447 14.2185 26.9266 14.2736 26.9053 14.3267C26.9017 14.3356 26.8973 14.344 26.8936 14.3529C26.8715 14.4043 26.8474 14.4542 26.8193 14.501C26.8156 14.5072 26.8115 14.5131 26.8076 14.5192C26.747 14.6162 26.6737 14.701 26.5908 14.7721C26.5845 14.7776 26.5787 14.7839 26.5723 14.7892C26.5321 14.822 26.4894 14.8501 26.4453 14.8758C26.4378 14.8802 26.4305 14.8853 26.4229 14.8895C26.3773 14.9143 26.3302 14.9354 26.2812 14.9521C26.2236 14.9719 26.164 14.987 26.1025 14.9943L26 15H12C11.9654 15 11.9312 14.9983 11.8975 14.9943C11.8356 14.987 11.7757 14.972 11.7178 14.9521C11.6689 14.9354 11.6216 14.9144 11.5762 14.8895C11.5685 14.8853 11.5613 14.8802 11.5537 14.8758C11.5096 14.8501 11.4668 14.822 11.4268 14.7892C11.4203 14.7839 11.4145 14.7776 11.4082 14.7721C11.3256 14.7011 11.2529 14.616 11.1924 14.5192C11.1884 14.5129 11.1835 14.5074 11.1797 14.501C11.1517 14.4542 11.1275 14.4043 11.1055 14.3529C11.1017 14.3441 11.0973 14.3356 11.0938 14.3267C11.0725 14.2736 11.0543 14.2185 11.04 14.1615C11.0232 14.0942 11.0111 14.0246 11.0049 13.953L11 13.8333V2.16667C11 2.10977 11.004 2.05391 11.0107 1.99919C11.0175 1.94398 11.0269 1.88983 11.04 1.8374C11.0544 1.78025 11.0734 1.72535 11.0947 1.6722C11.1158 1.61985 11.1398 1.56957 11.167 1.52181C11.1722 1.51268 11.1772 1.50341 11.1826 1.49447C11.213 1.4443 11.2466 1.39709 11.2832 1.35319C11.2896 1.34549 11.2961 1.33789 11.3027 1.3304C11.3194 1.31146 11.3367 1.29328 11.3545 1.27572C11.3598 1.2705 11.3647 1.26485 11.3701 1.25977C11.3865 1.24422 11.4036 1.22966 11.4209 1.21533C11.4308 1.20709 11.441 1.19923 11.4512 1.19141C11.4696 1.17727 11.4886 1.16425 11.5078 1.15153C11.515 1.14675 11.522 1.14129 11.5293 1.13672C11.5462 1.12616 11.5636 1.11653 11.5811 1.1071C11.5934 1.10042 11.6055 1.09269 11.6182 1.08659C11.6411 1.07553 11.6647 1.06605 11.6885 1.05697C11.6934 1.0551 11.6982 1.05305 11.7031 1.05127C11.7655 1.0287 11.8306 1.01364 11.8975 1.0057L12 1H26L26.1025 1.0057ZM19 12.6667C18.7239 12.6667 18.5 12.9278 18.5 13.25C18.5 13.5722 18.7239 13.8333 19 13.8333C19.2761 13.8333 19.5 13.5722 19.5 13.25C19.5 12.9278 19.2761 12.6667 19 12.6667Z" fill="black"/>
<path fill-rule="evenodd" clip-rule="evenodd" d="M8 1C8.55228 1 9 1.52233 9 2.16667V13.8333L8.99512 13.953C8.98517 14.0669 8.96082 14.1758 8.9248 14.2777C8.91958 14.2925 8.91295 14.3065 8.90723 14.321C8.8863 14.3738 8.86216 14.4243 8.83496 14.4725C8.82825 14.4844 8.82152 14.4962 8.81445 14.5078C8.80216 14.528 8.78971 14.5479 8.77637 14.5671C8.772 14.5733 8.76717 14.5791 8.7627 14.5853C8.74762 14.6061 8.73208 14.6262 8.71582 14.6457C8.70939 14.6534 8.7029 14.661 8.69629 14.6685C8.67841 14.6887 8.65976 14.7079 8.64062 14.7266C8.63691 14.7302 8.63364 14.7344 8.62988 14.738C8.61295 14.754 8.59595 14.7699 8.57812 14.7847C8.56738 14.7936 8.55598 14.8013 8.54492 14.8097C8.52584 14.8243 8.50628 14.8377 8.48633 14.8507C8.48136 14.854 8.4767 14.8579 8.47168 14.861C8.45449 14.8718 8.43671 14.881 8.41895 14.8906C8.40243 14.8995 8.38612 14.9089 8.36914 14.9168C8.36397 14.9192 8.35873 14.9214 8.35352 14.9237C8.3298 14.9341 8.30579 14.9438 8.28125 14.9521C8.23625 14.9675 8.18996 14.9784 8.14258 14.9863C8.09594 14.9941 8.04849 15 8 15H2C1.96539 15 1.93116 14.9983 1.89746 14.9943C1.83565 14.987 1.77575 14.972 1.71777 14.9521C1.66888 14.9354 1.62164 14.9144 1.57617 14.8895C1.56851 14.8853 1.56126 14.8802 1.55371 14.8758C1.50962 14.8501 1.46683 14.822 1.42676 14.7892C1.4203 14.7839 1.41454 14.7776 1.4082 14.7721C1.32557 14.7011 1.25286 14.616 1.19238 14.5192C1.18843 14.5129 1.18353 14.5074 1.17969 14.501C1.15166 14.4542 1.12747 14.4043 1.10547 14.3529C1.1017 14.3441 1.09733 14.3356 1.09375 14.3267C1.0725 14.2736 1.05434 14.2185 1.04004 14.1615C1.02318 14.0942 1.01113 14.0246 1.00488 13.953L1 13.8333V2.16667C1 2.10977 1.004 2.05391 1.01074 1.99919C1.01755 1.94398 1.02685 1.88983 1.04004 1.8374C1.05442 1.78025 1.07336 1.72535 1.09473 1.6722C1.11576 1.61985 1.13979 1.56957 1.16699 1.52181C1.17219 1.51268 1.1772 1.50341 1.18262 1.49447C1.21296 1.4443 1.24662 1.39709 1.2832 1.35319C1.28962 1.34549 1.29613 1.33789 1.30273 1.3304C1.31941 1.31146 1.33671 1.29328 1.35449 1.27572C1.35977 1.2705 1.36474 1.26485 1.37012 1.25977C1.38653 1.24422 1.40365 1.22966 1.4209 1.21533C1.43082 1.20709 1.44098 1.19923 1.45117 1.19141C1.46958 1.17727 1.48859 1.16425 1.50781 1.15153C1.51504 1.14675 1.52196 1.14129 1.5293 1.13672C1.54622 1.12616 1.56357 1.11653 1.58105 1.1071C1.59345 1.10042 1.6055 1.09269 1.61816 1.08659C1.6411 1.07553 1.66472 1.06605 1.68848 1.05697C1.69336 1.0551 1.69821 1.05305 1.70312 1.05127C1.76546 1.0287 1.83056 1.01364 1.89746 1.0057L2 1H8ZM5 12.6667C4.72386 12.6667 4.5 12.9278 4.5 13.25C4.5 13.5722 4.72386 13.8333 5 13.8333C5.27614 13.8333 5.5 13.5722 5.5 13.25C5.5 12.9278 5.27614 12.6667 5 12.6667Z" stroke="white" stroke-width="0.2"/>
<path fill-rule="evenodd" clip-rule="evenodd" d="M26.1025 1.0057C26.1691 1.01361 26.2338 1.02887 26.2959 1.05127C26.3008 1.05304 26.3057 1.05511 26.3105 1.05697C26.3343 1.06602 26.3579 1.07555 26.3809 1.08659C26.3935 1.09268 26.4056 1.10043 26.418 1.1071C26.4355 1.11651 26.4528 1.12618 26.4697 1.13672C26.4771 1.14129 26.484 1.14675 26.4912 1.15153C26.5105 1.16424 26.5294 1.17728 26.5479 1.19141C26.5581 1.19922 26.5682 1.2071 26.5781 1.21533C26.5954 1.22966 26.6125 1.24422 26.6289 1.25977C26.6343 1.26485 26.6392 1.27051 26.6445 1.27572C26.6623 1.29327 26.6796 1.31146 26.6963 1.3304C26.7029 1.33789 26.7094 1.34549 26.7158 1.35319C26.7525 1.39709 26.786 1.44429 26.8164 1.49447C26.8219 1.50359 26.8277 1.5125 26.833 1.52181C26.8602 1.56957 26.8842 1.61985 26.9053 1.6722C26.9266 1.72525 26.9446 1.78036 26.959 1.8374C26.9722 1.88988 26.9815 1.94393 26.9883 1.99919C26.995 2.05396 27 2.10971 27 2.16667V13.8333L26.9951 13.953C26.9889 14.0247 26.9759 14.0941 26.959 14.1615C26.9447 14.2185 26.9266 14.2736 26.9053 14.3267C26.9017 14.3356 26.8973 14.344 26.8936 14.3529C26.8715 14.4043 26.8474 14.4542 26.8193 14.501C26.8156 14.5072 26.8115 14.5131 26.8076 14.5192C26.747 14.6162 26.6737 14.701 26.5908 14.7721C26.5845 14.7776 26.5787 14.7839 26.5723 14.7892C26.5321 14.822 26.4894 14.8501 26.4453 14.8758C26.4378 14.8802 26.4305 14.8853 26.4229 14.8895C26.3773 14.9143 26.3302 14.9354 26.2812 14.9521C26.2236 14.9719 26.164 14.987 26.1025 14.9943L26 15H12C11.9654 15 11.9312 14.9983 11.8975 14.9943C11.8356 14.987 11.7757 14.972 11.7178 14.9521C11.6689 14.9354 11.6216 14.9144 11.5762 14.8895C11.5685 14.8853 11.5613 14.8802 11.5537 14.8758C11.5096 14.8501 11.4668 14.822 11.4268 14.7892C11.4203 14.7839 11.4145 14.7776 11.4082 14.7721C11.3256 14.7011 11.2529 14.616 11.1924 14.5192C11.1884 14.5129 11.1835 14.5074 11.1797 14.501C11.1517 14.4542 11.1275 14.4043 11.1055 14.3529C11.1017 14.3441 11.0973 14.3356 11.0938 14.3267C11.0725 14.2736 11.0543 14.2185 11.04 14.1615C11.0232 14.0942 11.0111 14.0246 11.0049 13.953L11 13.8333V2.16667C11 2.10977 11.004 2.05391 11.0107 1.99919C11.0175 1.94398 11.0269 1.88983 11.04 1.8374C11.0544 1.78025 11.0734 1.72535 11.0947 1.6722C11.1158 1.61985 11.1398 1.56957 11.167 1.52181C11.1722 1.51268 11.1772 1.50341 11.1826 1.49447C11.213 1.4443 11.2466 1.39709 11.2832 1.35319C11.2896 1.34549 11.2961 1.33789 11.3027 1.3304C11.3194 1.31146 11.3367 1.29328 11.3545 1.27572C11.3598 1.2705 11.3647 1.26485 11.3701 1.25977C11.3865 1.24422 11.4036 1.22966 11.4209 1.21533C11.4308 1.20709 11.441 1.19923 11.4512 1.19141C11.4696 1.17727 11.4886 1.16425 11.5078 1.15153C11.515 1.14675 11.522 1.14129 11.5293 1.13672C11.5462 1.12616 11.5636 1.11653 11.5811 1.1071C11.5934 1.10042 11.6055 1.09269 11.6182 1.08659C11.6411 1.07553 11.6647 1.06605 11.6885 1.05697C11.6934 1.0551 11.6982 1.05305 11.7031 1.05127C11.7655 1.0287 11.8306 1.01364 11.8975 1.0057L12 1H26L26.1025 1.0057ZM19 12.6667C18.7239 12.6667 18.5 12.9278 18.5 13.25C18.5 13.5722 18.7239 13.8333 19 13.8333C19.2761 13.8333 19.5 13.5722 19.5 13.25C19.5 12.9278 19.2761 12.6667 19 12.6667Z" stroke="white" stroke-width="0.2"/>
</svg>
