<svg width="27" height="28" viewBox="0 0 27 28" fill="none" xmlns="http://www.w3.org/2000/svg">
<path d="M7.49995 20.5C8.05224 20.5 8.49995 20.9477 8.49995 21.5V26.5C8.49995 27.0523 8.05224 27.5 7.49995 27.5H2.49995C1.94769 27.5 1.49995 27.0523 1.49995 26.5V21.5C1.49996 20.9477 1.94769 20.5 2.49995 20.5H7.49995ZM16.5 13.5C17.0522 13.5 17.5 13.9477 17.5 14.5V26.5C17.5 27.0523 17.0522 27.5 16.5 27.5H11.5C10.9477 27.5 10.5 27.0523 10.5 26.5V14.5C10.5 13.9477 10.9477 13.5 11.5 13.5H16.5ZM25.5 6.5C26.0522 6.5 26.5 6.94772 26.5 7.5V26.5C26.5 27.0523 26.0522 27.5 25.5 27.5H20.5C19.9477 27.5 19.5 27.0523 19.5 26.5V7.5C19.5 6.94773 19.9477 6.50002 20.5 6.5H25.5ZM19.5878 0.507812L19.6855 0.536133L22.1855 1.53613L22.2539 1.56934C22.4047 1.65822 22.5 1.8212 22.5 2V4.5C22.5 4.77614 22.2761 5 22 5C21.7238 4.99998 21.5 4.77613 21.5 4.5V2.93359L1.2773 16.416C1.04754 16.5692 0.737109 16.5071 0.583939 16.2773C0.43079 16.0476 0.492877 15.7372 0.72261 15.584L20.9316 2.11035L19.3144 1.46387L19.2246 1.41699C19.0304 1.28906 18.9464 1.03874 19.0361 0.814453C19.1258 0.590272 19.3591 0.46675 19.5878 0.507812Z" fill="black"/>
</svg>
