<svg width="31" height="37" viewBox="0 0 31 37" fill="none" xmlns="http://www.w3.org/2000/svg">
<path d="M13.6777 34.6777C13.6777 35.7822 14.5732 36.6777 15.6777 36.6777C16.7823 36.6777 17.6777 35.7822 17.6777 34.6777H13.6777ZM17.0919 1.26346C16.3109 0.482412 15.0446 0.482412 14.2635 1.26346L1.5356 13.9914C0.75455 14.7724 0.75455 16.0388 1.5356 16.8198C2.31665 17.6009 3.58298 17.6009 4.36403 16.8198L15.6777 5.5061L26.9914 16.8198C27.7725 17.6009 29.0388 17.6009 29.8199 16.8198C30.6009 16.0388 30.6009 14.7724 29.8199 13.9914L17.0919 1.26346ZM15.6777 34.6777H17.6777L17.6777 2.67767H15.6777H13.6777L13.6777 34.6777H15.6777Z" fill="black"/>
</svg>
