<svg width="19" height="19" viewBox="0 0 19 19" fill="none" xmlns="http://www.w3.org/2000/svg">
<path fill-rule="evenodd" clip-rule="evenodd" d="M1.59796 1.63656C1.65185 1.71167 2.89988 3.48591 4.37137 5.5793C5.84285 7.67269 7.20383 9.60865 7.39579 9.88141C7.58774 10.1542 7.74478 10.3828 7.74478 10.3895C7.74478 10.3962 7.6733 10.4823 7.58595 10.5809C7.49859 10.6793 7.25253 10.9581 7.03917 11.2004C6.8258 11.4427 6.4661 11.8511 6.23985 12.108C6.01361 12.3648 5.61559 12.8168 5.35534 13.1123C5.09511 13.4079 4.62714 13.9394 4.3154 14.2933C3.35126 15.388 3.21212 15.5461 2.47818 16.3811C2.08629 16.8269 1.71049 17.2531 1.64309 17.3283C1.57568 17.4035 1.52053 17.4729 1.52053 17.4825C1.52053 17.4938 1.76669 17.5 2.21406 17.5H2.90757L3.67001 16.6322C4.08936 16.1548 4.50303 15.685 4.58927 15.5881C4.77576 15.3786 6.19796 13.7623 6.3175 13.624C6.36327 13.5711 6.42975 13.4958 6.46524 13.4567C6.50074 13.4175 6.78055 13.1 7.08704 12.7511C7.3935 12.4022 7.65268 12.1082 7.66295 12.0977C7.67324 12.0873 7.83548 11.903 8.0235 11.688C8.21153 11.4732 8.37118 11.2974 8.37827 11.2974C8.38538 11.2974 9.35123 12.6633 10.5246 14.3326C11.6981 16.002 12.6791 17.3974 12.7047 17.4335L12.7513 17.4993L15.1301 17.4997C17.0865 17.4999 17.5074 17.4959 17.4999 17.4769C17.492 17.4566 16.3522 15.8329 13.4283 11.6762C11.3233 8.68387 11.0434 8.28175 11.0515 8.26134C11.0592 8.24151 11.3459 7.91398 13.2308 5.77167C13.5543 5.4042 13.9999 4.89736 14.2214 4.64538C14.4428 4.3934 14.6664 4.13965 14.7181 4.0815C14.7699 4.02335 15.0424 3.7141 15.3236 3.39427C15.6048 3.07445 16.0828 2.53101 16.3859 2.18664C16.6889 1.84227 16.948 1.54691 16.9616 1.53026C16.9849 1.50176 16.9453 1.5 16.282 1.5H15.5775L15.2642 1.85683C14.8472 2.33172 14.0935 3.18809 13.8794 3.43008C13.7849 3.537 13.6669 3.67139 13.6172 3.72869C13.5676 3.78599 13.4697 3.89675 13.3997 3.97481C13.3297 4.05287 12.9768 4.45375 12.6156 4.86565C12.2543 5.27754 11.9538 5.61851 11.9477 5.62335C11.9417 5.6282 11.8642 5.7159 11.7757 5.81826C11.6208 5.99729 11.4631 6.1765 10.7401 6.99543C10.4228 7.3549 10.4065 7.37033 10.3797 7.33729C10.3644 7.31826 9.43435 5.99715 8.31309 4.40152L6.27442 1.50037L3.88721 1.50018L1.5 1.5L1.59796 1.63656ZM3.46114 2.58796C3.47908 2.6147 3.9251 3.23921 4.45232 3.97577C5.45222 5.37271 9.38144 10.8654 11.9084 14.3987C12.7159 15.5278 13.3864 16.4615 13.3985 16.4737C13.4156 16.4911 13.6507 16.4949 14.497 16.4914L15.5738 16.4868L12.7562 12.5484C11.2066 10.3824 8.96293 7.24626 7.77037 5.5793L5.60205 2.54846L4.51532 2.54392L3.42858 2.53937L3.46114 2.58796Z" fill="#EEEEEE"/>
</svg>
